# xmcd
#
# Track frame offsets:
#	183
#	10215
#	25688
#	41515
#	55698
#	67868
#	81220
#	95983
#	111770
#	126280
#	138628
#	155483
#	167333
#	176870
#	187130
#	200945
#
# Disc length: 2836 seconds
#
# Revision: 8
# Processed by: cddbd v1.5.2PL0 Copyright (c) Steve Scherf et al.
# Submitted via: audiograbber 1.83.01
#
DISCID=e10b1210
DTITLE=Benny Goodman - Get Happy
DYEAR=1987
DGENRE=Jazz
TTITLE0=Let's Dance
TTITLE1=Somebody Stole My Gal
TTITLE2=Jumpin' At The Woodside
TTITLE3=Soufth of the Border
TTITLE4=I'm Gonna Sit Right Down and Write Myself a Letter
TTITLE5=Wolverine Blues
TTITLE6=Down South Camp Meetin'
TTITLE7=What a Little Moonlight Can Do
TTITLE8=When Buddha Smiles
TTITLE9=Bugle Call Rag
TTITLE10=St. Louis Blues
TTITLE11=Dinah
TTITLE12=Alexander's Rag Time Band
TTITLE13=Dear Old Southland
TTITLE14=Get Happy
TTITLE15=Rosetta
EXTD=
EXTT0=
EXTT1=
EXTT2=
EXTT3=
EXTT4=
EXTT5=
EXTT6=
EXTT7=
EXTT8=
EXTT9=
EXTT10=
EXTT11=
EXTT12=
EXTT13=
EXTT14=
EXTT15=
PLAYORDER=
